<svg xmlns="http://www.w3.org/2000/svg" width="24" height="24" viewBox="0 0 24 24" fill="none" stroke-width="2" stroke-linecap="round" stroke-linejoin="round" class="lucide lucide-tree-pine">
	<path d="M12 22v-3" stroke="#60d79e"/>
	<path d="m17 14 3 3.3a1 1 0 0 1-.7 1.7H4.7a1 1 0 0 1-.7-1.7L7 14h-.3a1 1 0 0 1-.7-1.7L9 9h-.2A1 1 0 0 1 8 7.3L12 3l4 4.3a1 1 0 0 1-.8 1.7H15l3 3.3a1 1 0 0 1-.7 1.7H17Z" stroke="url(#gradient)"/>

	<defs>
		<radialGradient id="gradient" cx="89.25%" cy="12.7%" r="120.63%" fx="89.25%" fy="12.7%">
			<stop offset="15%" stop-color="#bafbdc"/>
			<stop offset="41%" stop-color="#87fcc4"/>
			<stop offset="100%" stop-color="#48c288"/>
		</radialGradient>
	</defs>
</svg>
